<svg id="Layer_1" data-name="Layer 1" xmlns="http://www.w3.org/2000/svg" viewBox="0 0 604.69 275.24"><defs><style>.cls-1{fill:#1c527e;}.cls-2{fill:#fe0000;}</style></defs><path class="cls-1" d="M693.64,475l-.74-8.27H674.33L670.66,475H650.34l31.81-64.34h21.51L712.85,475Zm-9.54-23h4.81a2.38,2.38,0,0,0,2.37-2.6L690,435.45a.84.84,0,0,0-1.61-.27L682.18,449A2.1,2.1,0,0,0,684.1,452Z" transform="translate(-388.98 -267.02)"/><path class="cls-1" d="M794.93,410.64,783.62,475H765.24l5.42-31-18,23.71H751l-10.48-24.91L734.91,475H716.52l11.31-64.34h18.38L755.86,437l19.76-26.38Z" transform="translate(-388.98 -267.02)"/><path class="cls-1" d="M849.16,410.64,846,428.47H830.86L822.68,475H804.3l8.18-46.51H797.31l3.13-17.83Z" transform="translate(-388.98 -267.02)"/><path class="cls-1" d="M880,410.64a19.66,19.66,0,0,1,15.3,6.57q5.93,6.57,4.37,17.42a24.88,24.88,0,0,1-8.69,16.13q-7.21,6-18.61,6H865L861.75,475H843.36l11.31-64.34Zm1.47,23.07a4,4,0,0,0-1-3.91,5.21,5.21,0,0,0-3.59-1.33h-6.89L868.09,439h7.35a6.09,6.09,0,0,0,6-5.24Z" transform="translate(-388.98 -267.02)"/><path class="cls-1" d="M909.36,410.64h18.38L916.44,475H898.05Z" transform="translate(-388.98 -267.02)"/><path class="cls-1" d="M758.28,399.33c1.74-5.48,5.24-6.82,10.25-6.59a89.81,89.81,0,0,0,15.09-.9,98.38,98.38,0,0,0,12.9-2.65c3.3-.88,4.87-3.29,4.48-6.81-.61-5.91-1.23-11.84-2-19.35l-9.44,6.73.48,1.31,5.73-.46c-1.86,1.37-2.91,2.15-4.56,3.35,2.08-.1,3.45-.15,5.08-.24,1.48,7.75.32,9.56-6.74,11a27.41,27.41,0,0,1-5.15.72q-35.46.49-70.93.9c-8.44.08-16.9,0-25,0-.82-7.64-.92-14-2.27-20.06-2-8.81-7.76-13.3-15.47-13.27s-13.18,4.78-15.38,13.45c-.92,3.62-1.25,7.36-1.88,11.19l-4.5.2c.32,1.37.65,2.73.93,4.08,0,.24.09.45.14.68h3.21c1.41,3.93.48,5.18-2.28,5.43.28,2,.48,3.95.63,5.93.9,0,1.82,0,2.72,0,4.51,0,4.51,0,7.34,4.89h-5.26a4.4,4.4,0,0,0-4.38,4.46c0,.38,0,.77,0,1.15,72.5.34,153-.85,161-3.41Q785.66,400.21,758.28,399.33Zm-86.89-4.76c-4.66-.5-6.54-4-8.44-8.28,7.78,5.35,9.56,5.43,16.15,1.14C677.49,392.06,674.62,394.92,671.39,394.57Zm-5.93-22.05c.77-4.42,2-7.82,6.18-7.74,4.33.09,5.45,3.66,6.26,8.28C673.67,368.3,669.86,368.4,665.46,372.52Zm9.08,5.12-3.5,4.19c-.75-1.4-2.18-2.84-2.1-4.19s1.57-2.9,2.44-4.35C672.32,374.57,673.24,375.85,674.54,377.64ZM661.25,367c.35-5.62,4.3-10.52,8.79-10.89,4.7-.38,8.65,3.88,10.64,12.13C672.89,358.64,669,358.5,661.25,367Zm30.56,31.84c1.33-4.5,3.56-6.64,8.39-6.28,6.73.5,13.49.32,20.23.43,6,.1,6,.1,9.29,5.85Z" transform="translate(-388.98 -267.02)"/><path class="cls-1" d="M681.58,339.82c-2.35.24-4.71.37-7.06.68L637,345.68q1.26,2.2,2.39,4.52l48.33-4.73C687.18,341.17,685.25,339.46,681.58,339.82Z" transform="translate(-388.98 -267.02)"/><path class="cls-1" d="M655.31,353.76c-4.25.45-8.46.9-12.66,1.33.72,1.7,1.38,3.43,2,5.16l2.1-.1C650.61,360,654.13,358.87,655.31,353.76Z" transform="translate(-388.98 -267.02)"/><path class="cls-1" d="M754.25,371.11c-5.25-6.06-12.44-5.75-19.58-6.84,0,1.81,0,3,0,4.27.23,6,.63,6.42,6.52,6.5,3.07,0,6.13,0,10.49,0l-9.11-4.76c.12-.32.24-.64.37-.95C746.72,369.91,750.48,370.51,754.25,371.11Z" transform="translate(-388.98 -267.02)"/><path class="cls-1" d="M631.16,387.86c-8.87.27-17.76.35-26.65.53-1,0-2,.19-2.34.2.32,3.83,1,7.28.77,10.66-.32,4.35-1.5,8.61-2.11,12.95-.29,2-1.19,2.7-3.08,2.55-12.24-1-24.48-2-36.72-2.9-3.23-.23-4.9-2.24-6.34-4.53l40.16,2.39c-9.29-1.34-18.65-1.92-27.89-3.27-6.08-.88-12.82,0-17.87-4.89-.35-.35-1.1-.34-1.66-.44-8.33-1.53-16.64-3.09-25-4.56-3.1-.55-6.23-.9-9.32-1.33-.24,1.58-.4,2.6-.57,3.71-13.07-2-25.93-4-38.81-6-.29-3-.65-5.73-.77-8.44-.13-2.92,0-5.83,0-8.83h92c-.2-.51-.32-.86-.47-1.21-3.59-9-7.17-18.07-10.82-27.1-2.18-5.37-5.84-7.49-11.59-6.44-22.68,4.16-45.32,8.41-68,12.61-18.47,3.41-37,6.69-55.43,10.17-9.9,1.86-19.74,4-29.41,6v3.45h74.55c.38-3.46.7-6.43,1-9.39v10.46h-75v.93h75.89c.37,6,.7,11.47,1,17q21.93,4.15,43.84,8.28c2.15.4,3,2.18,2.26,4.78-.56,2-2.1,1.23-3.33,1-19-4.16-38-8.39-57-12.49-1.91-.41-2.71-1.08-2.53-3s-.58-2.66-2.63-2.95c-6.56-.88-13.07-2.08-19.6-3.14q-8.61-1.41-17.23-2.78c0,.16-.05.31-.09.48l27.71,4.91v3.33l-48.77-10.87-.43.83a13.43,13.43,0,0,0,2.49,1.35q54.86,15.46,109.73,30.84,62.85,17.63,125.65,35.26a9.86,9.86,0,0,1,2.23-2.14L561,427.49c1-1.4,1.77-2.57,2.67-3.56a2.7,2.7,0,0,1,1.83-.9c7.39.55,14.77,1.35,22.16,1.79a249.9,249.9,0,0,0,43-1.26c2.26-.25,3.71-1.42,4.06-3.53,1.4-8.24,2.85-16.48,3.88-24.78C639.17,390.59,635.83,387.73,631.16,387.86ZM515.07,348c0-.15-.05-.31-.08-.46l9.56-2c-.57,9.56-1.12,19-1.68,28.61H512.19c0-.18,0-.37,0-.55h9.6c.5-9.14,1-17.93,1.47-26.79Zm-16.6,2.92c0-.15-.05-.3-.06-.45l7.16-1.5c-.5,8.54-1,16.82-1.45,25.18h-8.78c0-.1,0-.2,0-.3l7.81-.44c.43-7.79.84-15.32,1.29-23.12C502.4,350.45,500.44,350.66,498.47,350.88Zm-14.6,2.8a2.05,2.05,0,0,0-.07-.34c1.95-.46,3.9-.95,6.28-1.51-.45,7.54-.9,14.78-1.35,22.33h-6.29l-.05-.3,5.49-.79c.35-6.56.7-13,1.07-19.88Zm-78.28,13.78c0-.21-.06-.43-.1-.65l70.2-12.34c-.41,4.75-.78,9.06-1.14,13.39h-.27v-12Q439.93,361.68,405.59,367.46Zm120.12,50.3c-3.19-.21-5.79-3.14-6.44-7.82.73,1.38,1,2.43,1.62,3,1.54,1.3,3.28,3.21,5,3.25,1.48,0,3-2.13,4.51-3.4.83-.72,1.56-1.57,2.33-2.36C531.79,415.48,529,418,525.71,417.76Zm27.86,7.81c-3.93-.83-7-5.86-6.48-10.37a42.65,42.65,0,0,0,2.2,5.38c2.58,4.54,6.68,4.49,9.09-.13.8-1.54,1.55-2.35,3.3-1.69C560.43,423.23,556.83,426.26,553.57,425.57Z" transform="translate(-388.98 -267.02)"/><path class="cls-1" d="M527.08,328.92c8.09-2.12,16.18-4.15,24.24-6.38a6.83,6.83,0,0,1,6.73,1.71,21.35,21.35,0,0,1,3.75,4.08c5,7.41,9.87,15,15,22.35,3.06,4.44,7,8.07,12.4,9.22a83.86,83.86,0,0,0,13.36,1.3c1.75.1,3,.42,3.63,2.15,1.1,2.83,3.06,3.83,6.21,3.48,5.08-.57,5.09-.37,5.68-6.06,2.44,0,4.77,0,7.09,0,5-.12,7.24-2.93,6.41-7.8-1-5.81-3.73-10.85-7-15.62-5.89-8.64-12.62-16.35-22.64-20.49-19.4-8-38.75-7.41-58,.3a56.57,56.57,0,0,0-18.39,12C526.36,329.05,526.73,329,527.08,328.92Zm81-5.22a124.48,124.48,0,0,0-37.37,0c.92,1.33,1.74,2.47,2.49,3.65,5.32,8.27,10.72,16.51,15.9,24.87a6.31,6.31,0,0,0,6.14,3.42c8.89-.15,17.77-.07,26.66-.07H625c0,.27,0,.55,0,.83-10.42.25-20.83.6-31.25.64a6.45,6.45,0,0,1-4.67-2.39c-7-10.44-13.67-21.06-20.73-32.06A102.48,102.48,0,0,1,608.07,323.7Zm0,6v.48H578.88c0-.17.08-.32.12-.48Z" transform="translate(-388.98 -267.02)"/><path class="cls-1" d="M392.29,365.11c40.28-10.9,80.51-22,120.9-32.55,7.46-1.93,12.59-6.46,18.07-11.15q-70.36,21.72-140.72,43.47l.14.53C391.22,365.31,391.76,365.26,392.29,365.11Z" transform="translate(-388.98 -267.02)"/><path class="cls-1" d="M634.43,382.51c5.18-.79,7.37-3.72,6.66-8.87-.69-4.88-2.38-9.61-3.63-14.4l-.93.23c.91,3.13,1.93,6.24,2.69,9.41,1.45,6-.33,9-6.37,9.49-9.23.7-18.5,1-27.74.95-7.2,0-14.31-1.28-19.57-6.91-2.93-3.12-5.44-6.6-8.16-9.91-4.61-5.64-9.16-11.36-13.89-16.9-1.16-1.35-2.94-2.16-4.37-3.18,3,3.68,6.21,7.09,8.84,10.91,3.26,4.72,6,9.82,9,14.67,4.44,7,9.82,13,18.43,14.66C608.42,385.16,621.47,384.5,634.43,382.51Z" transform="translate(-388.98 -267.02)"/><path class="cls-1" d="M609.85,428q23.85,6.18,47.71,12a8.57,8.57,0,0,1,2.09-1.78q-22.15-4.95-44.32-9.89A33.21,33.21,0,0,0,609.85,428Z" transform="translate(-388.98 -267.02)"/><path class="cls-1" d="M551.56,324.17q-59.92,15.66-120.11,31.42l.14.53,117.5-29.92c-.45,2.9-.81,5.28-1.23,8.06C549.21,330.61,550.37,327.4,551.56,324.17Z" transform="translate(-388.98 -267.02)"/><path class="cls-1" d="M600.89,377.44c.12-.24.22-.49.32-.74-2.08-3.49-4.13-7-6.23-10.49-2.75-4.56-4.54-5.22-10.17-3.71.9,1.82,1.78,3.58,3.08,6.19.73-1.93,1.15-3,1.6-4.26,1.78,2.23,0,3.78-1.3,5.81,1.21.8,2.31,2.07,3.43,2.08.7,0,1.43-1.84,2.18-2.89,1.53,2-.28,3.51-1.42,5.53Z" transform="translate(-388.98 -267.02)"/><path class="cls-1" d="M567.64,380.82c-1.78-2.52-3.73-3.33-6.78-2.57,6.85,11.39,19.27,15.65,34.82,15.69l-6-.9C580.81,391.71,573,388.36,567.64,380.82Z" transform="translate(-388.98 -267.02)"/><path class="cls-1" d="M636.44,371.24a31.57,31.57,0,0,0-1.08-5.39c-1.18-5-1.2-5-6.73-4.08.35,2.2.7,4.39,1,6.59l.68.13,1.28-2.94c.18,1.1.37,2.48-.23,3-2,1.92-1.12,3.78-.27,6.33.93-1.45,1.63-2.51,2.33-3.58.18.12.38.24.58.35-.86,1.65-1.74,3.3-2.58,4.85C635.09,376.37,636.69,374.82,636.44,371.24Z" transform="translate(-388.98 -267.02)"/><path class="cls-1" d="M643.65,410.12c1.22-4.58,1.88-9.32,3.35-13.82,2-6-.87-10.44-3.76-15.05,2,5,3.59,9.91,2.31,15.68-3.65,16.52-1.95,13.82-4.7,15.07a9.43,9.43,0,0,0,.72.7C642.29,411.85,643.39,411.1,643.65,410.12Z" transform="translate(-388.98 -267.02)"/><path class="cls-1" d="M590.13,308.32h0l.3-.09h0l76.2-24.41c.56-.18,1.15-.27,1.73-.4.08.25.18.48.26.73q-25.12,8.94-50.25,17.87l-21.54,7.73a79.08,79.08,0,0,1,8.65,3,39.4,39.4,0,0,1,4.12,2v-4l.8,0c.14,1.58.29,3.15.42,4.74a44.2,44.2,0,0,1,8.22,6.51,96.9,96.9,0,0,1,13.24,16l14.17-2.23v-33l.81,0c.83,10.78,1.67,21.57,2.52,32.51l41.92-5.66v-40l1.62,0c1.41,30.6,2.83,61.22,4.24,92.06h19.29a20.26,20.26,0,0,0-5.47-1.63c-9.6-1.73-9.77-1.72-10.29-11.28-.68-12.87-1.08-25.75-1.61-38.79,5.08,0,8.19,2.55,10.71,5.91,5.17,6.91,10.24,13.92,15.25,21a10.26,10.26,0,0,1,1.08,3.57c1.22,5.29,2.4,10.59,3.6,15.88l.45-.05V359.89c8.92.8,17.38,2.26,25.84,2.18,12.74-.14,25.46-1.28,38.16-2.2,1-.08,2-1.58,3-2.41-1.25-.47-2.47-1.27-3.73-1.34-1.87-.1-3.76.42-5.65.5-12,.54-24,1-36,1.5,0-.48-.09-.95-.14-1.43,1.45-.22,2.9-.38,4.33-.63,12.41-2.2,24.83-4.38,37.22-6.7.93-.18,1.68-1.4,2.49-2.13-1-.36-2.09-1.08-3.09-1-5.83.35-11.63,1.06-17.45,1.31s-11.69.05-17.52.05a3.34,3.34,0,0,1,2.16-1c10.36-2,20.75-4,31.08-6.16,1.13-.23,2-1.7,3-2.58a19.45,19.45,0,0,0-3.86-1.4,18.79,18.79,0,0,0-3.77.33q-11.39.75-22.79,1.48l-.1-.86,29.15-6.15-1.79-5.67-20.64,1.48c0-.3-.05-.6-.08-.92,6.56-1.23,13.12-2.46,20.85-3.93-5-11.87-9.71-23-14.37-34.05,5.24-.52,8.67,2,10.67,7s4.3,9.81,6.38,14.74c1.46,3.48,4.31,2.73,6.81,2.08a3.9,3.9,0,0,0,2.18-3.1c-1.53-13-10.41-22.46-23.09-24.64-4.92-.85-9.35-2-12.79-6.08-1.38-1.63-3.93-2.65-6.15-3.16-7.67-1.8-15.38-3.47-23.16-4.77S722,268.07,714,267c.28,5.87,2,9.13,7.9,8.9,2.93-.12,5.88,1.08,8.85,1.44a9.32,9.32,0,0,1,8.12,6.33c2.43,6.48,4.66,13,6.86,19.58.8,2.4,1.1,4.93-2.33,5.47-3,.46-6,1.16-7-3.62a59.06,59.06,0,0,0-2.53-9c-6-15.67-4.3-16.1-15.27-15.65q6,32.08,12.14,64.35l-1.63.34c-.34-1.19-.72-2.35-1-3.55-5.48-23.81-11.71-47.39-21.16-70-1.7-4.08-3.7-5.1-7.78-3.82-30.52,9.54-61.18,18.69-91.58,28.56-7.18,2.33-14.3,4.83-21.41,7.43l-1.41.51h0l-.14.05-1,.35h0l-10.32,3.85Z" transform="translate(-388.98 -267.02)"/><path class="cls-1" d="M909.05,325.74c-26.48-15.42-60.43-26.81-98.62-32.44,38.69,4.13,73.89,13.72,102.87,27.31l-.2.2A29.27,29.27,0,0,0,909.05,325.74Z" transform="translate(-388.98 -267.02)"/><path class="cls-1" d="M993.67,416.65c0,69.37-101.19,125.61-226,125.61-117.79,0-214.52-50.08-225-114l6.37,1.7c19.32,53.8,104.74,94.33,207.19,94.33,116.69,0,211.3-52.57,211.3-117.42,0-15.81-5.61-30.89-15.82-44.64a110.66,110.66,0,0,0-13.05-14.66A141.82,141.82,0,0,0,924,335.41a10.37,10.37,0,0,1,5.66-6.36q7.6,4.32,14.41,9.06a157.51,157.51,0,0,1,15.65,12.27C981.23,369.61,993.67,392.32,993.67,416.65Z" transform="translate(-388.98 -267.02)"/><path class="cls-2" d="M961.2,337.33c-1.88-14.34-13.45-23.68-26.82-24.5a26.69,26.69,0,0,0-21.08,7.78c5.67,2.66,11.13,5.48,16.31,8.44A10.26,10.26,0,0,1,944,338.11a9.64,9.64,0,0,1-.19,2.38,10.27,10.27,0,1,1-20.14-4.05,8.62,8.62,0,0,1,.26-1,176.82,176.82,0,0,0-14.9-9.67,25.92,25.92,0,0,0-3.68,19.54,72.89,72.89,0,0,0,3.91,12.46c1.83,4.91,3.88,9.72,5.66,14.64a103,103,0,0,1,5.58,22.54c.24,1.95.4,3.9.6,6a86.23,86.23,0,0,1,5-9,121.62,121.62,0,0,1,15.82-19.39c3.29-3.4,6.64-6.76,9.75-10.34q2.32-2.62,4.43-5.45a28,28,0,0,0,3.55-6.36A26,26,0,0,0,961.2,337.33Z" transform="translate(-388.98 -267.02)"/><path class="cls-1" d="M929.61,329.05a10.37,10.37,0,0,0-5.66,6.36,176.82,176.82,0,0,0-14.9-9.67,29.27,29.27,0,0,1,4.05-4.93l.2-.2C919,323.27,924.43,326.09,929.61,329.05Z" transform="translate(-388.98 -267.02)"/><path class="cls-1" d="M925.39,334a1.5,1.5,0,0,0,0-3,1.5,1.5,0,0,0,0,3Z" transform="translate(-388.98 -267.02)"/><path class="cls-1" d="M926,333.31a1.5,1.5,0,0,0,0-3,1.5,1.5,0,0,0,0,3Z" transform="translate(-388.98 -267.02)"/><path class="cls-1" d="M927.34,332.59l.21-.19a1.21,1.21,0,0,0,.31-.48,1.14,1.14,0,0,0,.12-.58,1.13,1.13,0,0,0-.12-.57,1.32,1.32,0,0,0-.31-.49l-.31-.23a1.52,1.52,0,0,0-.76-.21l-.39.06a1.54,1.54,0,0,0-.67.38l-.2.19a1.24,1.24,0,0,0-.31.48,1.36,1.36,0,0,0,0,1.16,1.17,1.17,0,0,0,.31.48l.31.24a1.5,1.5,0,0,0,.75.2l.4,0a1.39,1.39,0,0,0,.66-.39Z" transform="translate(-388.98 -267.02)"/><path class="cls-1" d="M926.69,332.66a1.5,1.5,0,0,0,0-3,1.5,1.5,0,0,0,0,3Z" transform="translate(-388.98 -267.02)"/><path class="cls-1" d="M927.64,332.35l.22-.13a1.13,1.13,0,0,0,.42-.39,1.06,1.06,0,0,0,.27-.51,1.22,1.22,0,0,0,0-.6,1.16,1.16,0,0,0-.18-.56l-.23-.3a1.56,1.56,0,0,0-.67-.39l-.39-.05a1.54,1.54,0,0,0-.76.2l-.22.14a1,1,0,0,0-.42.39,1.14,1.14,0,0,0-.27.51,1.18,1.18,0,0,0,0,.59,1.12,1.12,0,0,0,.18.56l.24.31a1.45,1.45,0,0,0,.66.38l.4.05a1.41,1.41,0,0,0,.75-.2Z" transform="translate(-388.98 -267.02)"/><path class="cls-1" d="M928.69,331.81l0,0a1.14,1.14,0,0,0,.31-.48,1.36,1.36,0,0,0,0-1.16,1.08,1.08,0,0,0-.31-.48l-.3-.24a1.54,1.54,0,0,0-.76-.2l-.4,0a1.49,1.49,0,0,0-.66.39l0,0a1.14,1.14,0,0,0-.31.48,1.08,1.08,0,0,0-.13.58,1.06,1.06,0,0,0,.13.58,1,1,0,0,0,.31.48l.3.24a1.57,1.57,0,0,0,.76.2l.4-.05a1.49,1.49,0,0,0,.66-.39Z" transform="translate(-388.98 -267.02)"/><path class="cls-1" d="M928.84,331.71l0,0-.31.24.09-.05-.36.15h0a1.14,1.14,0,0,0,.51-.27,1,1,0,0,0,.39-.42,1.12,1.12,0,0,0,.18-.56,1.22,1.22,0,0,0,0-.6l-.15-.35a1.4,1.4,0,0,0-.54-.54l-.36-.15a1.51,1.51,0,0,0-.79,0h0l-.36.15h0l0,0-.34.25,0,0a1.21,1.21,0,0,0-.31.49,1.11,1.11,0,0,0-.13.57,1.15,1.15,0,0,0,.13.58,1.11,1.11,0,0,0,.31.48l.31.24a1.5,1.5,0,0,0,.75.2l.4,0a1.39,1.39,0,0,0,.66-.39Z" transform="translate(-388.98 -267.02)"/><path class="cls-1" d="M928.87,331.73l.19-.09a1,1,0,0,0,.42-.38,1.26,1.26,0,0,0,.27-.51,1.22,1.22,0,0,0,0-.6,1.12,1.12,0,0,0-.18-.56l-.24-.3a1.39,1.39,0,0,0-.66-.39l-.4,0a1.5,1.5,0,0,0-.75.2l-.19.09a1.18,1.18,0,0,0-.42.38,1.26,1.26,0,0,0-.27.51,1.22,1.22,0,0,0,0,.6,1.12,1.12,0,0,0,.18.56l.24.3a1.39,1.39,0,0,0,.66.39l.4.05a1.5,1.5,0,0,0,.75-.2Z" transform="translate(-388.98 -267.02)"/><path class="cls-1" d="M928.89,331.67h.05a1.26,1.26,0,0,0,.51-.27,1.18,1.18,0,0,0,.38-.42,1.12,1.12,0,0,0,.18-.56,1,1,0,0,0,0-.6l-.15-.36a1.5,1.5,0,0,0-.53-.53l-.36-.16a1.55,1.55,0,0,0-.8,0l0,0a1.14,1.14,0,0,0-.51.27,1.31,1.31,0,0,0-.39.42,1.12,1.12,0,0,0-.18.56,1.22,1.22,0,0,0,0,.6l.15.35a1.55,1.55,0,0,0,.54.54l.36.15a1.36,1.36,0,0,0,.8,0Z" transform="translate(-388.98 -267.02)"/><path class="cls-1" d="M928.57,331.7a1.5,1.5,0,0,0,0-3,1.5,1.5,0,0,0,0,3Z" transform="translate(-388.98 -267.02)"/><path class="cls-1" d="M928.78,331.83a1.5,1.5,0,0,0,0-3,1.5,1.5,0,0,0,0,3Z" transform="translate(-388.98 -267.02)"/><path class="cls-1" d="M924.88,331.29l0,0,.24-.3a1.77,1.77,0,0,1-.31.3l.31-.23-.06,0a1.18,1.18,0,0,0-.42.38,1.26,1.26,0,0,0-.27.51,1.11,1.11,0,0,0,0,.6,1,1,0,0,0,.17.56l.24.3a1.49,1.49,0,0,0,.66.39l.4.05a1.57,1.57,0,0,0,.76-.2l.2-.16.21-.16.1-.1a.47.47,0,0,0,.1-.1l.05-.06.27-.35a1.16,1.16,0,0,0,.18-.56,1.12,1.12,0,0,0,0-.6,1,1,0,0,0-.27-.51,1.13,1.13,0,0,0-.42-.39l-.36-.15a1.51,1.51,0,0,0-.79,0l-.36.15a1.55,1.55,0,0,0-.54.54Z" transform="translate(-388.98 -267.02)"/><path class="cls-1" d="M923.7,332.09h0a1.11,1.11,0,0,0-.31.49,1,1,0,0,0-.13.57,1.06,1.06,0,0,0,.13.58,1,1,0,0,0,.31.48l.3.24a1.54,1.54,0,0,0,.76.2l.4-.05a1.49,1.49,0,0,0,.66-.39h0a1.11,1.11,0,0,0,.31-.49,1,1,0,0,0,.13-.57,1.06,1.06,0,0,0-.13-.58,1,1,0,0,0-.31-.48l-.3-.24a1.54,1.54,0,0,0-.76-.2l-.39.05a1.47,1.47,0,0,0-.67.39Z" transform="translate(-388.98 -267.02)"/><path class="cls-1" d="M923.22,333.26l0,.21a1.72,1.72,0,0,0,.44,1.06,1.24,1.24,0,0,0,.48.31,1.27,1.27,0,0,0,.58.13l.4-.06a1.57,1.57,0,0,0,.66-.38l.24-.31a1.5,1.5,0,0,0,.2-.75l0-.21a1.25,1.25,0,0,0-.13-.57,1.32,1.32,0,0,0-.8-.8,1.22,1.22,0,0,0-.57-.13l-.4.06a1.45,1.45,0,0,0-.66.38l-.24.31a1.5,1.5,0,0,0-.2.75Z" transform="translate(-388.98 -267.02)"/><path class="cls-1" d="M923.23,334.1l0,.07a1.26,1.26,0,0,0,.27.51,1,1,0,0,0,.42.38,1.73,1.73,0,0,0,1.16.16l.35-.16a1.45,1.45,0,0,0,.54-.53l.15-.36a1.55,1.55,0,0,0,0-.8v-.07a1.26,1.26,0,0,0-.27-.51,1.18,1.18,0,0,0-.42-.38,1.16,1.16,0,0,0-.56-.18,1,1,0,0,0-.6,0l-.36.15a1.55,1.55,0,0,0-.54.54l-.15.35a1.55,1.55,0,0,0,0,.8Z" transform="translate(-388.98 -267.02)"/><path class="cls-1" d="M924.78,335.54a1.5,1.5,0,0,0,0-3,1.5,1.5,0,0,0,0,3Z" transform="translate(-388.98 -267.02)"/><path class="cls-1" d="M924.85,335.52a1.5,1.5,0,0,0,0-3,1.5,1.5,0,0,0,0,3Z" transform="translate(-388.98 -267.02)"/><path class="cls-1" d="M924.81,335.44a1.5,1.5,0,0,0,0-3,1.5,1.5,0,0,0,0,3Z" transform="translate(-388.98 -267.02)"/><path class="cls-1" d="M924.83,335.59a1.5,1.5,0,0,0,0-3,1.5,1.5,0,0,0,0,3Z" transform="translate(-388.98 -267.02)"/><path class="cls-1" d="M924.21,335.45a.38.38,0,0,0,0-.75.38.38,0,0,0,0,.75Z" transform="translate(-388.98 -267.02)"/><path class="cls-1" d="M924.2,335.45a.38.38,0,0,0,0-.75.38.38,0,0,0,0,.75Z" transform="translate(-388.98 -267.02)"/><path class="cls-1" d="M924.18,335.46a.38.38,0,0,0,0-.75.38.38,0,0,0,0,.75Z" transform="translate(-388.98 -267.02)"/><path class="cls-1" d="M924.18,335.46a.38.38,0,0,0,0-.75.38.38,0,0,0,0,.75Z" transform="translate(-388.98 -267.02)"/><path class="cls-1" d="M924.18,335.46a.38.38,0,0,0,0-.75.38.38,0,0,0,0,.75Z" transform="translate(-388.98 -267.02)"/><path class="cls-1" d="M924.17,335.47a.38.38,0,0,0,0-.75.38.38,0,0,0,0,.75Z" transform="translate(-388.98 -267.02)"/><path class="cls-1" d="M924.17,335.48a.38.38,0,0,0,0-.75.38.38,0,0,0,0,.75Z" transform="translate(-388.98 -267.02)"/><path class="cls-1" d="M929.36,329.74a.38.38,0,0,0,0-.75.38.38,0,0,0,0,.75Z" transform="translate(-388.98 -267.02)"/><path class="cls-1" d="M929.38,329.74a.38.38,0,0,0,0-.75.38.38,0,0,0,0,.75Z" transform="translate(-388.98 -267.02)"/><path class="cls-1" d="M929.39,329.74a.38.38,0,0,0,0-.75.38.38,0,0,0,0,.75Z" transform="translate(-388.98 -267.02)"/><path class="cls-1" d="M909.33,325.73a.38.38,0,0,0,0-.75.38.38,0,0,0,0,.75Z" transform="translate(-388.98 -267.02)"/><path class="cls-1" d="M909.31,325.76a.38.38,0,0,0,0-.75.38.38,0,0,0,0,.75Z" transform="translate(-388.98 -267.02)"/><path class="cls-1" d="M909.29,325.78a.38.38,0,0,0,0-.75.38.38,0,0,0,0,.75Z" transform="translate(-388.98 -267.02)"/><path class="cls-1" d="M909.28,325.78a.38.38,0,0,0,0-.75.38.38,0,0,0,0,.75Z" transform="translate(-388.98 -267.02)"/><path class="cls-1" d="M909.28,325.79a.38.38,0,0,0,0-.75.38.38,0,0,0,0,.75Z" transform="translate(-388.98 -267.02)"/><path class="cls-1" d="M909.27,325.79a.38.38,0,0,0,0-.75.38.38,0,0,0,0,.75Z" transform="translate(-388.98 -267.02)"/><path class="cls-1" d="M911.13,325.44c.88-.79,1.77-1.56,2.67-2.33a1.52,1.52,0,0,0,.44-1.06,1.5,1.5,0,0,0-1.5-1.5l-.39.05a1.47,1.47,0,0,0-.67.39c-.9.77-1.79,1.54-2.67,2.33a1.52,1.52,0,0,0-.44,1.06,1.5,1.5,0,0,0,1.5,1.5,1.63,1.63,0,0,0,1.06-.44Z" transform="translate(-388.98 -267.02)"/><path class="cls-1" d="M913.09,321.35a.38.38,0,0,0,0-.75.38.38,0,0,0,0,.75Z" transform="translate(-388.98 -267.02)"/><path class="cls-1" d="M913.11,321.34a.38.38,0,0,0,0-.75.38.38,0,0,0,0,.75Z" transform="translate(-388.98 -267.02)"/><path class="cls-1" d="M913.3,321.28h0a.22.22,0,0,0,.1-.09.24.24,0,0,0,.07-.13.26.26,0,0,0,0-.15.24.24,0,0,0-.05-.14l0-.08a.56.56,0,0,0-.17-.09l-.1,0a.33.33,0,0,0-.19.06h0a.24.24,0,0,0-.11.09.31.31,0,0,0-.06.13.26.26,0,0,0,0,.15.33.33,0,0,0,0,.14l.06.08a.46.46,0,0,0,.17.09l.1,0a.33.33,0,0,0,.19-.06Z" transform="translate(-388.98 -267.02)"/><path class="cls-1" d="M913.12,321.33a.38.38,0,0,0,0-.75.38.38,0,0,0,0,.75Z" transform="translate(-388.98 -267.02)"/><path class="cls-1" d="M913.13,321.33a.38.38,0,0,0,0-.75.38.38,0,0,0,0,.75Z" transform="translate(-388.98 -267.02)"/></svg>